# xmcd
#
# Track frame offsets:
#	150
#	25252
#	47237
#	60775
#	83545
#	104437
#	112372
#	130437
#	157405
#	165840
#	187212
#	205000
#	223365
#	238295
#
# Disc length: 3383 seconds
#
# Revision: 0
# Processed by: cddbd v1.4PL0 Copyright (c) Steve Scherf et al.
# Submitted via: dBpowerAMP V4.0
#
DISCID=d00d350e
DTITLE=Dermot Byrne Blues Combo - Raw Whiskey Blues
DYEAR=1996
DGENRE=Blues
TTITLE0=Line em, Rollin' and Tumblin'
TTITLE1=Slow Train
TTITLE2=Preachin' Blues
TTITLE3=Raw Whiskey Blues
TTITLE4=Walking Blues
TTITLE5=Low Down Blues
TTITLE6=Fortune Teller
TTITLE7=Catfish to Kingbee
TTITLE8=Borrow Love and Go
TTITLE9=Old Riley
TTITLE10=Death Letter Blues
TTITLE11=M&O Blues
TTITLE12=Going Down to Clarksdale
TTITLE13=John Henry
EXTD=
EXTT0=
EXTT1=
EXTT2=
EXTT3=
EXTT4=
EXTT5=
EXTT6=
EXTT7=
EXTT8=
EXTT9=
EXTT10=
EXTT11=
EXTT12=
EXTT13=
PLAYORDER=
